<?xml version="1.0" standalone="no"?>
<!DOCTYPE svg PUBLIC "-//W3C//DTD SVG 20010904//EN"
 "http://www.w3.org/TR/2001/REC-SVG-20010904/DTD/svg10.dtd">
<svg version="1.0" xmlns="http://www.w3.org/2000/svg"
 width="700.000000pt" height="700.000000pt" viewBox="0 0 700.000000 700.000000"
 preserveAspectRatio="xMidYMid meet">
<metadata>
Created by potrace 1.14, written by Peter Selinger 2001-2017
</metadata>
<g transform="translate(0.000000,700.000000) scale(0.100000,-0.100000)"
fill="#000000" stroke="none">
<path d="M3290 6614 l0 -54 -136 1 -137 1 -28 -34 c-16 -18 -28 -37 -28 -43 1
-5 1 -39 0 -75 l-1 -66 -52 1 -53 0 -5 55 -5 55 -43 0 c-53 -1 -65 13 -58 65
6 43 8 42 -64 42 -63 0 -60 6 -51 -98 1 -8 21 -11 56 -10 l54 1 3 -55 c3 -59
-1 -56 76 -59 32 -1 32 -1 32 -54 l0 -53 -102 2 c-57 1 -106 2 -110 3 -4 0 -7
25 -5 54 l2 52 -55 0 -55 -1 -5 -54 -5 -53 -45 -1 c-25 -1 -48 -5 -51 -9 -3
-4 -5 -28 -4 -52 2 -35 -1 -45 -14 -46 -9 -1 -34 -2 -56 -3 l-40 -1 -1 -155
c-1 -85 -2 -160 -3 -165 -1 -8 -59 -11 -102 -6 -3 1 -5 49 -5 109 l1 107 -55
0 -55 0 0 -162 0 -163 25 -1 c93 -4 84 1 85 -56 l1 -53 -101 0 c-55 0 -105 -4
-110 -8 -10 -6 -11 -58 -6 -179 1 -31 2 -32 53 -35 l53 -3 -2 -40 c0 -22 -2
-45 -2 -50 -1 -6 -22 -11 -47 -12 -26 -2 -49 -4 -51 -7 -2 -2 -5 -27 -7 -54
l-3 -51 56 -3 56 -3 0 -160 c0 -179 8 -161 -75 -164 l-36 -1 1 -110 0 -110 52
0 c57 0 54 -4 56 70 l2 35 52 0 c30 1 53 -4 54 -10 0 -5 2 -29 3 -52 3 -42 3
-43 -28 -44 -85 -3 -80 0 -81 -52 -1 -27 3 -51 9 -54 5 -4 30 -7 55 -7 l45 -1
0 -52 -1 -53 53 0 c36 0 54 -4 55 -12 0 -7 1 -56 2 -108 l2 -95 -56 -3 -56 -3
0 -54 0 -55 109 0 c119 0 112 5 108 -72 l-1 -37 57 -3 58 -3 -2 -90 c-1 -123
-1 -123 61 -127 l52 -3 -1 -52 -2 -52 50 1 c27 0 52 -3 55 -6 4 -3 7 -23 8
-44 1 -20 3 -43 4 -49 1 -9 16 -12 47 -10 25 2 48 -2 50 -8 7 -18 12 -99 13
-192 1 -53 5 -93 11 -93 5 0 7 6 4 14 -8 21 14 56 35 56 10 0 23 6 28 13 15
19 15 79 1 89 -10 6 -8 8 5 8 15 0 17 -10 17 -73 0 -80 -9 -97 -68 -124 -25
-12 -24 -12 23 -10 55 2 50 11 54 -84 1 -28 -7 -26 125 -33 21 -1 35 -10 51
-36 l22 -34 -21 -18 c-15 -13 -17 -18 -6 -17 42 4 50 -1 46 -27 -3 -15 -2 -23
1 -20 4 4 9 19 11 34 2 15 13 37 24 49 26 28 70 21 108 -16 15 -14 43 -41 64
-60 29 -26 34 -36 25 -47 -9 -11 -8 -14 2 -14 8 0 23 -13 34 -29 18 -28 20
-29 36 -13 9 9 15 20 12 25 -2 4 2 8 9 8 20 2 159 -2 190 -5 l28 -3 -5 58 -5
59 42 1 c76 2 73 0 73 54 l0 50 55 0 55 0 0 55 0 55 53 3 c60 4 54 -20 55 195
0 97 4 127 14 128 7 0 32 2 55 2 l42 2 1 55 0 55 53 -3 52 -3 1 43 c1 24 1 49
0 56 -1 8 15 12 54 12 l55 0 1 43 c1 23 0 72 0 110 l-1 67 55 0 55 0 0 56 0
55 109 -3 109 -3 4 58 3 57 -58 0 -58 0 2 104 c1 58 -2 109 -5 114 -3 6 -24 9
-46 7 -22 -1 -42 0 -44 4 -7 11 31 51 48 51 16 0 25 13 30 44 5 38 12 20 11
-29 -1 -30 1 -59 4 -64 7 -10 31 -14 78 -12 31 1 32 2 35 54 3 50 4 52 33 53
82 4 75 -1 75 58 l0 53 98 2 c53 1 100 5 104 9 4 4 10 54 13 110 l6 102 -36 1
c-19 1 -43 2 -52 3 -15 1 -19 -9 -21 -56 -2 -32 -6 -59 -10 -59 -4 -1 -27 -2
-50 -4 -51 -2 -62 14 -52 74 5 36 6 36 55 36 l50 0 0 60 0 60 -52 -2 -53 -3 0
55 c0 60 2 59 -82 57 -27 -1 -28 1 -28 49 0 27 5 50 10 50 6 1 15 3 20 4 6 1
51 3 100 4 l90 1 0 165 0 165 -55 0 -55 0 -1 -32 c-1 -18 -2 -42 -2 -54 0 -18
-7 -21 -53 -23 l-54 -2 0 45 c0 50 8 59 59 61 20 1 39 3 44 4 4 0 7 52 7 114
l0 112 -55 -3 -55 -4 0 54 0 55 -42 0 c-24 1 -48 1 -55 2 -7 1 -13 22 -15 54
l-3 52 -60 3 c-33 1 -80 3 -105 5 l-45 3 1 42 c0 23 3 44 5 46 3 3 50 7 106 9
l102 4 3 -56 3 -56 90 2 c50 0 98 2 108 2 15 1 18 9 15 54 l-3 52 -105 0 -105
0 -5 55 -5 55 -155 0 -155 0 -5 55 c-5 53 -6 55 -35 56 -79 3 -75 0 -75 54 0
28 -4 51 -10 51 -5 1 -19 3 -30 4 -11 1 -31 3 -45 4 -23 1 -25 5 -25 50 0 55
-5 59 -67 56 -47 -3 -50 1 -48 63 0 36 -3 42 -20 43 -11 0 -33 2 -48 3 -35 2
-44 -9 -43 -59 1 -46 -7 -55 -50 -55 -38 0 -49 -13 -53 -60 -2 -19 -8 -38 -13
-41 -9 -6 -69 -2 -93 5 -7 2 -10 43 -9 105 1 112 6 105 -73 103 -35 -2 -36 -1
-33 66 l2 43 -111 -2 -111 -1 0 -54z m95 -53 c6 -1 12 -25 13 -54 l1 -52 -54
-2 c-30 -1 -56 2 -56 5 -7 38 -3 94 7 100 11 6 36 7 89 3z m-212 -110 c4 -1 7
-25 5 -53 l-3 -53 -52 -1 -53 -1 0 53 c0 32 5 54 12 56 10 4 62 3 91 -1z m103
-113 c6 -4 11 -28 11 -53 l0 -45 -51 0 -52 0 1 45 c0 27 6 49 14 54 15 10 61
9 77 -1z m665 -113 c6 -57 4 -95 -5 -97 -6 -2 -29 -4 -51 -3 l-40 0 -2 55 -2
55 49 0 c28 0 50 -4 51 -10z m-329 -7 c2 -7 4 -31 4 -53 l-1 -40 -40 2 c-22 0
-46 1 -52 2 -13 1 -18 56 -8 83 7 17 91 22 97 6z m-660 -122 c2 -11 2 -31 0
-43 -3 -22 -17 -24 -94 -14 -5 1 -8 19 -8 41 l0 40 49 -1 c42 -1 50 -5 53 -23z
m788 -26 l-7 -45 -2 41 c0 22 2 44 6 47 10 11 11 5 3 -43z m-1224 -95 c1 -58
-2 -61 -54 -60 -46 0 -47 0 -48 35 -2 59 7 67 71 65 28 -1 30 -3 31 -40z m774
-4 c0 -28 -4 -52 -9 -55 -5 -3 -54 -6 -110 -7 l-101 -2 0 -56 0 -56 -100 2
c-55 0 -104 2 -110 2 -5 1 -10 24 -10 51 l0 50 88 1 c88 1 120 4 129 12 4 4 9
39 12 84 1 12 25 15 154 21 l57 2 0 -49z m320 -11 c0 -50 0 -50 -32 -51 -18 0
-41 -2 -50 -4 -15 -3 -18 5 -18 51 l0 54 50 0 50 0 0 -50z m115 -111 c-2 -22
-5 -43 -8 -45 -10 -10 -90 -6 -97 5 -3 7 -4 29 -1 49 6 34 9 37 46 42 52 7 64
-2 60 -51z m540 -4 l0 -50 -40 4 c-54 4 -55 5 -55 57 l0 45 48 -3 47 -3 0 -50z
m-1415 -103 l0 -48 -52 0 c-44 1 -53 4 -52 19 1 9 2 31 3 47 1 29 2 30 51 30
l50 0 0 -48z m478 41 c-16 -2 -40 -2 -55 0 -16 2 -3 4 27 4 30 0 43 -2 28 -4z
m1159 -40 c-3 -27 -6 -49 -6 -50 -1 -2 -10 -3 -20 -3 -17 0 -18 4 -10 36 8 25
7 39 -2 50 -9 12 -7 14 16 14 26 0 27 -1 22 -47z m-1097 2 c0 -19 1 -38 1 -42
3 -11 -62 -20 -91 -13 -25 6 -25 6 5 12 23 5 33 15 43 42 17 47 42 48 42 1z
m-151 -41 c38 -8 41 -20 4 -21 -70 -1 -69 0 -72 -48 -2 -40 1 -46 24 -55 15
-6 91 -10 171 -10 l144 0 1 28 1 27 7 -25 c8 -28 39 -37 70 -20 15 8 21 8 21
0 0 -8 65 -10 215 -8 118 2 215 1 216 -2 0 -3 2 -14 4 -25 2 -11 5 -57 6 -102
l2 -83 52 0 c52 0 53 0 57 -34 2 -18 3 -87 2 -152 -1 -104 1 -115 11 -84 6 19
16 35 21 35 14 0 60 38 67 55 3 8 6 -47 5 -122 l0 -137 -51 -3 -51 -3 1 -125
c0 -69 1 -142 2 -162 l1 -38 49 0 50 0 6 54 c7 50 9 54 36 58 17 3 32 1 35 -4
3 -4 -7 -8 -23 -8 l-28 -1 34 -15 c25 -10 38 -11 45 -4 8 8 6 14 -4 20 -13 9
-13 10 0 11 101 7 130 0 125 -28 -2 -10 -4 -33 -4 -51 l-1 -33 -104 2 c-81 1
-109 -2 -129 -15 -14 -9 -38 -19 -53 -22 -16 -3 -32 -11 -37 -17 -5 -7 -7 0
-5 18 3 30 2 30 -49 33 -49 3 -53 1 -55 -20 -2 -30 3 -82 8 -87 4 -4 93 -2
167 4 l37 3 0 -58 c0 -57 -1 -59 -31 -65 -18 -4 -27 -10 -21 -14 18 -11 -9
-79 -35 -86 -19 -4 -22 -12 -21 -48 1 -72 3 -69 -55 -63 l-54 4 0 -81 c0 -45
-1 -96 -2 -113 l-1 -31 -109 -2 -109 -1 5 59 5 59 -56 -1 -56 -2 0 55 0 56
-47 -1 c-27 0 -53 3 -59 7 -6 4 -9 28 -8 53 l3 45 -162 -2 -162 -3 -1 -30 c-2
-37 6 -50 29 -51 54 -2 67 -5 67 -12 0 -4 -19 -8 -42 -9 -24 0 -71 -1 -105 -2
l-63 -1 0 -54 0 -55 -55 5 -55 4 0 -60 0 -60 -107 3 -108 4 0 109 0 109 -55 0
-55 1 -2 84 c-1 47 -2 95 -2 108 -1 20 -6 22 -56 22 l-54 0 5 52 c6 64 9 68
39 62 28 -5 31 -1 40 49 6 32 5 37 -11 37 -11 0 -26 5 -34 10 -11 7 -4 9 25 7
38 -2 40 -3 42 -37 0 -19 1 -43 2 -53 1 -15 9 -18 44 -17 71 3 69 4 65 -44 -3
-25 -2 -49 1 -55 4 -6 75 -12 169 -15 l162 -5 0 58 0 59 -152 0 c-84 0 -159 0
-165 1 -9 1 -13 19 -13 56 l0 55 -42 1 c-24 1 -49 1 -55 0 -10 -1 -13 26 -13
108 l0 109 51 4 c28 1 53 1 55 -1 2 -2 4 -28 4 -58 0 -35 4 -53 13 -54 6 -1
77 -3 157 -5 l145 -4 5 43 c11 92 19 88 -161 83 l-159 -5 -1 27 c-2 53 -4 57
-27 58 -34 2 -39 14 -6 15 98 4 451 5 462 1 7 -2 12 -21 12 -42 0 -29 -4 -37
-17 -37 -101 0 -122 -12 -36 -21 27 -2 50 -6 51 -7 2 -2 5 -50 5 -107 l2 -103
51 -5 50 -5 0 41 c1 65 6 71 61 70 48 -1 48 -1 50 -36 0 -19 2 -43 2 -52 1
-14 10 -18 45 -18 25 0 47 4 51 9 3 5 7 55 10 110 l4 101 -32 1 c-18 1 -40 1
-49 0 -11 -2 -18 5 -19 16 -1 14 -2 15 -6 2 -3 -12 -18 -16 -58 -18 -60 -2
-59 -2 -55 65 2 38 -6 44 -58 46 -45 1 -51 11 -47 72 l3 36 -156 1 c-150 1
-241 4 -252 9 -3 1 -13 2 -22 1 -15 -2 -18 6 -18 43 0 25 3 46 8 47 4 1 49 2
100 3 80 1 96 -1 106 -16 10 -14 12 18 10 167 l-3 185 55 0 54 0 0 54 0 55
-55 -2 -55 -2 0 53 c0 47 2 52 23 53 43 1 82 10 85 20 4 11 18 11 61 3z m-499
-125 l0 -109 -49 0 c-56 0 -61 7 -54 68 5 46 9 44 -84 45 -21 0 -23 5 -23 48
l0 48 38 3 c20 2 67 4 105 4 l67 1 0 -108z m1523 78 c-2 -52 -3 -57 -13 -57
-5 0 -10 9 -10 19 0 23 -28 53 -44 48 -6 -2 -14 -23 -17 -48 l-6 -44 -1 52
c-2 49 -1 52 26 55 56 7 66 3 65 -25z m438 18 c0 -5 2 -54 3 -107 l3 -98 -43
0 c-24 0 -46 6 -50 12 -5 7 -9 56 -10 109 l-3 96 50 -1 c27 0 49 -5 50 -11z
m0 -348 c0 -17 2 -42 3 -54 2 -21 -2 -23 -39 -23 -51 0 -65 13 -65 61 0 34 3
38 28 41 76 9 72 10 73 -25z m-2405 -90 c3 -3 7 -27 9 -52 l2 -47 -30 6 c-16
3 -41 6 -56 6 -24 0 -26 3 -27 45 -1 33 3 45 15 47 24 5 80 2 87 -5z m2299
-24 c-2 -21 -4 -46 -4 -56 -1 -16 -7 -18 -43 -13 -24 3 -46 5 -50 5 -8 1 -4
73 5 88 3 4 25 9 50 11 l45 2 -3 -37z m-1965 -128 l0 -55 -50 0 -50 0 0 55 0
55 50 0 50 0 0 -55z m-113 -161 c-3 -3 -12 -4 -19 -1 -8 3 -5 6 6 6 11 1 17
-2 13 -5z m230 -61 c-3 -10 -5 -2 -5 17 0 19 2 27 5 18 2 -10 2 -26 0 -35z
m-122 -191 c2 -25 -13 -30 -22 -6 -5 13 -8 13 -24 -3 -10 -10 -25 -23 -33 -30
-7 -7 -16 -17 -18 -24 -3 -8 -25 -13 -56 -15 -55 -1 -58 1 -61 60 0 17 4 33 9
36 6 4 54 6 107 5 92 0 96 -1 98 -23z m2193 -25 l-3 -52 -52 0 -53 -1 0 46 c0
26 2 49 5 51 2 3 27 6 55 6 l51 2 -3 -52z m-2401 -162 c50 0 95 -3 99 -7 4 -5
7 -55 7 -113 l0 -105 51 0 51 0 3 -50 c2 -35 -1 -50 -10 -51 -143 -7 -198 -6
-199 4 0 7 0 57 1 113 l1 100 -55 -1 -56 -2 2 101 c1 71 3 88 7 56 l6 -45 92
0z m2069 -7 c5 -6 6 -255 1 -288 -5 -31 -17 -35 -109 -34 l-93 0 -3 50 -3 50
48 3 c26 1 49 3 50 5 2 2 5 41 7 87 2 46 4 94 5 106 1 16 8 23 29 25 37 4 60
3 68 -4z m-870 -564 c-3 -9 -6 -31 -6 -50 0 -32 -2 -34 -20 -24 -11 6 -24 9
-28 6 -4 -3 -14 -1 -22 5 -12 7 -11 9 4 9 11 0 16 3 12 8 -4 4 -22 7 -39 7
-23 0 -35 6 -42 22 -7 18 -19 23 -60 26 -27 2 8 4 79 5 113 2 127 0 122 -14z
m101 -97 c11 -7 12 -82 2 -92 -7 -6 -470 -13 -511 -7 -26 4 -28 7 -28 53 l0
48 38 3 c67 5 489 1 499 -5z m246 -457 c-3 -12 -8 -19 -11 -16 -5 6 5 36 12
36 2 0 2 -9 -1 -20z m-896 -96 c-3 -3 -12 -4 -19 -1 -8 3 -5 6 6 6 11 1 17 -2
13 -5z m217 -141 c-6 -63 1 -72 59 -76 l52 -3 -57 -2 c-54 -2 -58 0 -64 23 -3
14 -10 25 -15 25 -6 0 -5 8 1 19 19 36 12 40 -82 44 l-93 3 101 2 102 2 -4
-37z m413 31 c-3 -3 -12 -4 -19 -1 -8 3 -5 6 6 6 11 1 17 -2 13 -5z m-687 -55
c0 -5 -4 -9 -10 -9 -5 0 -10 7 -10 16 0 8 5 12 10 9 6 -3 10 -10 10 -16z"/>
<path d="M2868 5087 c-4 -18 -1 -27 8 -27 20 0 25 15 10 35 -12 17 -13 16 -18
-8z"/>
<path d="M3715 5032 c-49 -2 -92 -7 -95 -12 -4 -6 -6 -54 -6 -108 l1 -97 47
-2 c59 -2 63 3 67 80 l1 23 206 -1 c113 0 210 2 216 6 5 3 12 31 15 61 l5 54
-184 0 c-101 -1 -223 -2 -273 -4z"/>
<path d="M3753 4812 c-21 -3 -23 -9 -23 -63 l0 -59 160 0 159 0 -1 60 c-2 53
-4 60 -22 60 -12 1 -73 2 -136 3 -63 1 -125 1 -137 -1z"/>
<path d="M3228 4592 l-48 -3 0 -40 c0 -63 11 -75 64 -71 l46 4 0 53 c0 30 -3
55 -7 57 -5 2 -29 2 -55 0z"/>
<path d="M3617 4583 c-4 -3 -7 -26 -7 -50 0 -48 6 -53 66 -56 l39 -2 3 49 c2
32 -1 52 -10 57 -16 10 -82 12 -91 2z"/>
<path d="M3725 4470 c-7 -11 -9 -89 -3 -95 7 -7 315 -8 326 -1 4 2 7 26 6 53
l-2 48 -161 1 c-89 1 -163 -2 -166 -6z"/>
<path d="M4824 5896 c-11 -28 -11 -186 0 -194 6 -5 31 -8 56 -8 l45 1 3 105 3
105 -51 2 c-32 1 -53 -3 -56 -11z"/>
<path d="M1758 4978 c2 -29 6 -55 8 -58 3 -2 24 -4 47 -5 l42 0 0 -50 0 -51
58 -2 c31 -1 58 1 58 6 7 42 4 102 -5 103 -6 0 -31 2 -56 2 l-45 2 3 51 3 51
-59 2 -58 2 4 -53z"/>
<path d="M2740 3112 l0 -59 -55 2 -55 2 3 -55 2 -55 -80 2 c-44 2 -93 4 -110
4 l-30 2 3 -60 3 -61 -114 4 -113 3 0 -55 1 -56 -51 0 c-58 0 -62 -4 -59 -67
l1 -43 -40 -1 c-23 0 -75 -1 -116 -1 l-75 -1 3 -54 4 -53 -162 0 -162 0 4 -56
4 -56 -110 5 -111 5 0 -57 0 -56 -47 0 c-26 -1 -51 -5 -55 -9 -4 -4 -8 -29 -8
-54 l0 -47 -52 -3 -53 -3 0 -37 c-2 -611 1 -1817 5 -1820 6 -6 1068 -3 1073 3
3 2 6 29 8 59 l4 54 -55 -2 -54 -3 -3 55 c-3 50 -5 55 -28 59 -39 5 -80 24
-80 37 -1 6 -1 73 0 149 l1 137 -59 0 -58 0 4 275 3 275 -33 2 c-18 0 -43 0
-55 -1 -16 -1 -23 4 -24 16 -1 10 -2 34 -2 53 -2 35 -2 35 -52 36 l-50 1 -2
149 c0 82 -1 157 -2 166 -1 13 -11 16 -53 15 l-53 -2 -1 -50 c-1 -27 -2 -52
-3 -55 0 -3 -25 -3 -53 0 l-53 5 0 160 0 160 -30 1 c-16 1 -42 2 -56 3 l-26 1
2 101 c2 55 5 102 7 104 2 3 99 5 216 5 l212 1 1 47 c1 26 1 50 0 55 -1 8 34
10 114 7 107 -4 99 0 105 -52 6 -52 0 -58 -72 -58 l-37 0 0 -55 1 -55 48 0
c27 0 51 -4 54 -8 3 -5 6 -29 7 -55 l3 -47 47 0 c45 0 47 -1 50 -32 2 -18 4
-140 4 -270 0 -183 3 -238 13 -239 6 -1 29 -2 50 -2 20 -1 39 -5 42 -9 3 -4 5
-52 4 -108 l-1 -100 56 0 56 0 -1 -157 c0 -87 1 -163 3 -169 2 -6 24 -9 53 -8
55 4 50 10 53 -73 1 -33 20 -43 65 -32 22 5 35 3 37 -4 2 -7 6 -106 9 -222 2
-115 5 -211 5 -212 1 -2 24 -3 51 -3 l50 0 0 -55 0 -55 165 0 165 0 1 33 c2
47 6 77 10 81 2 2 24 6 49 7 l45 4 3 -63 c3 -56 5 -62 25 -63 111 -3 704 4
739 10 4 1 8 24 10 53 l3 52 48 -3 c32 -2 49 2 52 11 3 7 6 134 7 282 l3 269
37 2 c21 0 40 4 43 7 13 13 16 74 21 448 3 217 7 396 8 397 1 1 23 3 49 4 43
3 47 5 48 28 1 14 2 109 4 211 2 102 3 188 4 193 1 4 21 7 46 7 51 0 63 16 61
80 l-1 35 -53 0 c-40 0 -52 3 -53 15 -3 54 3 406 7 409 3 3 25 6 49 7 49 2 49
1 45 -73 -1 -30 1 -33 27 -34 15 -1 32 -1 37 0 27 6 53 -10 53 -31 1 -88 -2
-83 53 -80 l50 4 0 -115 0 -115 61 4 60 5 -5 -63 c-2 -35 -5 -84 -5 -109 l-1
-46 -82 2 c-46 2 -96 3 -111 4 -28 1 -28 1 -22 55 l7 53 -61 0 -60 0 0 -59 1
-58 54 0 54 0 0 -55 0 -55 55 0 54 0 3 -57 3 -58 76 1 c42 0 89 4 105 7 l29 6
-3 -55 -4 -54 -47 0 -47 0 -3 -92 c-3 -141 0 -133 -60 -131 l-51 2 0 -164 c0
-125 -3 -165 -12 -166 -15 -2 -56 -6 -80 -8 -16 -1 -18 -13 -18 -104 l0 -104
-42 2 c-24 1 -49 0 -55 -3 -9 -3 -12 -44 -11 -158 0 -85 -2 -157 -6 -161 -3
-3 -27 -7 -53 -7 l-48 -1 -1 -95 c-1 -52 -2 -102 -3 -110 -1 -11 -14 -15 -53
-15 l-53 0 -1 -55 -1 -55 -51 2 -52 2 0 -59 0 -60 160 0 160 0 1 38 c2 70 0
67 62 70 l58 3 -6 158 -6 159 38 8 c21 4 46 7 56 7 14 0 17 10 18 66 1 36 0
83 -1 104 -1 20 2 38 7 38 4 1 126 3 271 4 190 2 262 0 263 -9 0 -6 2 -30 5
-53 l5 -43 -56 0 -55 0 0 -165 0 -165 -56 0 -56 0 4 -50 c4 -45 2 -50 -16 -51
-94 -3 -107 -11 -104 -66 l3 -48 545 -3 546 -2 3 667 c1 368 4 786 5 931 l2
262 -48 0 c-54 0 -66 14 -63 68 2 37 -2 40 -58 45 -49 5 -52 10 -52 65 l0 47
-110 -1 -110 -2 1 54 1 54 -99 1 c-54 1 -104 2 -110 3 -9 1 -13 19 -12 53 l0
53 -135 -1 c-75 0 -148 0 -163 1 -27 0 -28 2 -28 53 l0 52 -52 1 -53 0 -3 56
-3 55 -107 0 -107 -1 0 55 0 54 -105 0 -105 0 -5 55 c-5 53 -6 55 -35 56 -82
4 -75 -1 -75 58 l0 53 -57 -1 -58 -1 -2 -590 c0 -324 -2 -595 -2 -601 -1 -7
-19 -12 -43 -12 -24 0 -48 -1 -53 -1 -7 -1 -11 -73 -10 -216 0 -140 -3 -216
-10 -218 -5 -3 -29 -3 -52 -2 l-41 2 -2 -126 c-1 -69 -2 -133 -2 -141 0 -8 -2
-27 -4 -42 -5 -25 -9 -27 -52 -25 l-47 2 -5 -110 -5 -110 -50 3 c-27 2 -52 5
-53 7 -2 2 -6 322 -9 712 l-4 708 -47 0 c-43 0 -47 2 -48 24 -1 23 0 23 12 7
15 -21 54 -14 54 10 0 8 6 14 13 14 7 0 17 10 22 23 8 18 19 23 63 25 l52 3 0
54 0 54 -52 3 -53 3 -3 53 -3 53 -54 -2 -53 -2 2 -54 1 -53 -120 -1 c-66 0
-142 0 -168 1 l-48 2 3 -59 3 -58 52 -5 52 -5 0 -795 c0 -475 -3 -801 -9 -810
-11 -17 -89 -22 -91 -6 -1 6 -2 18 -3 26 -1 8 2 27 6 42 3 15 2 28 -3 30 -5 2
-10 60 -11 129 -2 137 0 133 -58 112 -8 -4 -18 -5 -22 -5 -5 1 -8 -2 -8 -8 0
-5 -4 -10 -8 -10 -5 0 -8 74 -8 165 l1 165 -52 0 c-43 0 -53 3 -54 18 -1 19
-6 251 -8 353 l-1 66 -55 2 -56 2 1 -357 c1 -196 4 -363 7 -370 3 -8 18 -14
33 -14 15 0 37 -8 49 -18 20 -17 21 -25 23 -396 l3 -380 -28 1 c-15 1 -40 1
-55 2 l-28 1 0 107 1 108 -50 0 -50 0 -5 110 -5 109 -48 2 c-27 1 -51 5 -55 8
-3 4 -5 54 -4 112 l2 105 -57 -2 -57 -3 -1 162 0 162 -52 0 -53 0 0 110 0 110
-58 0 -57 0 0 154 c0 85 3 157 6 160 3 3 27 7 55 8 l49 3 -3 53 -3 52 110 0
111 0 0 110 c0 81 -3 110 -12 111 -7 0 -32 2 -56 3 l-43 2 4 -36 c8 -73 1 -78
-105 -74 -51 2 -98 6 -103 8 -6 2 -10 33 -8 72 0 38 2 84 2 102 1 32 1 32 51
32 28 0 50 5 51 10 0 6 2 29 2 53 l2 42 55 5 55 5 1 95 c0 129 -2 122 43 117
22 -2 44 -1 50 2 5 4 11 29 13 56 l3 50 53 1 52 2 0 -219 0 -219 -56 0 -56 0
3 -42 c4 -66 6 -68 65 -68 l54 0 -4 -166 -3 -165 50 5 c27 3 51 7 53 9 2 2 4
271 5 598 l2 594 -56 3 -57 3 0 -59z m-546 -629 c-1 -15 -2 -40 -3 -54 l-1
-26 -94 2 c-51 1 -98 5 -105 9 -6 4 -11 27 -11 51 l0 44 103 3 c56 2 105 2
108 1 3 -1 5 -15 3 -30z m2736 -23 c0 -27 -3 -50 -7 -51 -37 -3 -203 -3 -204
1 0 3 -2 26 -2 53 l-2 47 108 0 107 0 0 -50z m-1424 -100 c4 -59 -1 -65 -48
-63 -24 0 -45 2 -48 2 -3 1 -5 20 -5 44 -1 37 3 43 25 48 58 12 73 6 76 -31z
m1639 -15 l1 -50 216 -3 217 -2 3 -105 c3 -117 9 -109 -74 -105 l-38 2 0 -165
c0 -181 3 -174 -65 -173 l-40 1 1 58 1 57 -58 0 -57 0 2 -152 c1 -84 0 -159
-2 -165 -3 -8 -23 -13 -53 -13 l-49 0 -1 -40 c-1 -22 -2 -46 -3 -52 -1 -8 -22
-15 -56 -18 l-55 -5 -2 -85 c-2 -47 -4 -95 -6 -107 -3 -13 0 -23 4 -23 5 0 9
-26 8 -57 l-2 -58 -261 1 c-143 1 -267 2 -274 3 -9 1 -12 16 -10 54 3 56 -2
52 72 56 21 1 25 8 32 59 l9 57 53 -3 52 -3 0 110 0 110 57 3 58 3 -3 268 c-2
210 0 267 10 268 11 1 48 5 86 8 8 1 12 19 12 54 0 40 -5 57 -19 69 -13 11
-18 24 -14 37 9 36 21 33 28 -9 6 -38 8 -40 46 -41 21 -1 45 -2 52 -3 7 -1 13
-16 13 -36 3 -80 -1 -75 56 -75 l53 0 1 -40 c1 -22 2 -46 3 -52 1 -9 19 -13
56 -13 l54 0 -1 45 c-1 52 -5 56 -61 61 -48 3 -54 12 -50 64 3 38 1 40 -25 41
-81 3 -77 0 -80 54 -4 57 -12 65 -69 65 l-43 0 0 50 0 51 108 -3 107 -3 0 -50z
m-1643 -177 c7 -20 4 -83 -4 -85 -5 -2 -27 -3 -51 -3 l-43 0 1 43 c1 40 3 42
35 48 55 10 58 10 62 -3z m2186 -371 c3 -283 7 -265 -63 -270 l-40 -4 0 -49 0
-49 -58 -3 -57 -4 4 49 c2 26 4 51 5 55 1 3 23 5 50 3 l49 -4 2 122 c1 67 4
158 5 202 2 44 3 106 4 137 1 52 3 57 29 66 15 5 36 8 47 8 19 -1 20 -9 23
-259z m-4372 161 c5 -7 9 -104 9 -215 1 -112 4 -206 8 -209 4 -4 27 -7 51 -7
25 0 47 -5 49 -11 3 -10 2 -48 -2 -89 -1 -10 -17 -13 -53 -13 l-53 1 -5 55 -5
55 -40 0 c-26 0 -42 5 -46 14 -11 27 -11 402 0 415 14 16 78 20 87 4z m2167
-315 c-13 -2 -35 -2 -50 0 -16 2 -5 4 22 4 28 0 40 -2 28 -4z m-1942 -260 c1
-18 2 -41 3 -50 1 -15 -9 -18 -56 -20 l-58 -2 0 44 c0 51 11 60 70 60 38 0 40
-1 41 -32z m3930 24 c9 -95 6 -99 -57 -95 l-48 3 1 38 c0 20 1 43 2 50 1 17
101 22 102 4z m-3825 -153 l0 -51 -50 2 -51 1 -1 39 c-1 59 2 62 54 60 l47 -1
1 -50z m3712 39 c4 -7 8 -29 7 -50 l0 -38 -53 0 c-28 0 -52 3 -52 8 0 4 0 26
0 50 l0 43 45 -1 c25 0 49 -6 53 -12z m-4071 -148 c20 -18 33 -37 30 -42 -4
-6 -27 -10 -52 -10 l-46 0 2 47 c3 55 11 56 66 5z m1796 25 c-3 -11 -7 -20 -9
-20 -2 0 -4 9 -4 20 0 11 4 20 9 20 5 0 7 -9 4 -20z m-1651 -79 c3 -1 5 -23 3
-51 -2 -27 0 -51 3 -51 4 -1 29 -2 57 -3 l50 -1 0 -55 0 -54 -58 -1 -58 -2 3
51 3 51 -50 3 c-27 1 -52 7 -56 13 -9 15 -1 91 11 99 8 5 51 5 92 1z m4144 0
c8 -1 11 -55 5 -104 -1 -5 -9 -7 -18 -6 -10 1 -33 1 -50 0 l-33 -1 0 -55 0
-55 -50 1 c-55 2 -59 7 -57 74 l2 40 48 -2 c51 -2 50 -4 49 67 -1 47 1 48 104
41z m-3933 -220 c7 -1 8 -74 0 -96 -2 -6 -25 -10 -51 -10 -44 1 -47 3 -50 29
-9 72 10 86 101 77z m3722 -11 c3 -5 2 -10 -4 -10 -5 0 -13 5 -16 10 -3 6 -2
10 4 10 5 0 13 -4 16 -10z m-89 -9 c-3 -5 2 -8 11 -7 26 2 28 -50 2 -64 -27
-15 -32 -9 -33 40 -1 27 3 40 12 40 7 0 11 -4 8 -9z"/>
<path d="M3411 2820 c-8 -54 -8 -68 -1 -81 13 -21 16 -9 9 46 -3 28 -7 43 -8
35z"/>
<path d="M3494 2783 c-4 -16 -11 -33 -16 -40 -6 -8 -4 -11 9 -9 13 2 19 13 20
39 3 44 -4 48 -13 10z"/>
<path d="M3298 2719 c-19 -12 -2 -22 19 -11 13 7 28 6 50 -3 29 -13 32 -12 30
6 -1 17 -8 19 -44 17 -24 -1 -48 -5 -55 -9z"/>
<path d="M2420 1805 l0 -55 55 0 55 0 0 43 c0 24 -5 48 -12 55 -7 7 -31 12
-55 12 l-43 0 0 -55z"/>
<path d="M4435 1850 c-40 -5 -40 -5 -40 -50 l0 -45 53 -3 52 -3 0 49 c0 56 -5
60 -65 52z"/>
</g>
</svg>
